<svg xmlns="http://www.w3.org/2000/svg" xmlns:xlink="http://www.w3.org/1999/xlink" width="1080" zoomAndPan="magnify" viewBox="0 0 810 809.999993" height="1080" preserveAspectRatio="xMidYMid meet" version="1.0"><defs><g/><clipPath id="64345725fa"><path d="M 84.644531 52.871094 L 729 52.871094 L 729 697.226562 L 84.644531 697.226562 Z M 84.644531 52.871094 " clip-rule="nonzero"/></clipPath><clipPath id="75679f0fe8"><path d="M 406.820312 52.871094 C 228.886719 52.871094 84.644531 197.117188 84.644531 375.050781 C 84.644531 552.984375 228.886719 697.226562 406.820312 697.226562 C 584.757812 697.226562 729 552.984375 729 375.050781 C 729 197.117188 584.757812 52.871094 406.820312 52.871094 Z M 406.820312 52.871094 " clip-rule="nonzero"/></clipPath></defs><g clip-path="url(#64345725fa)"><g clip-path="url(#75679f0fe8)"><path fill="#ffffff" d="M 84.644531 52.871094 L 729 52.871094 L 729 697.226562 L 84.644531 697.226562 Z M 84.644531 52.871094 " fill-opacity="1" fill-rule="nonzero"/></g></g><g fill="#609a93" fill-opacity="1"><g transform="translate(253.325922, 434.299599)"><g><path d="M 173.5625 -392.359375 L 173.5625 -16.484375 C 173.5625 -12.171875 171.941406 -8.398438 168.703125 -5.171875 C 165.253906 -1.722656 161.378906 0 157.078125 0 C 152.765625 0 148.882812 -1.722656 145.4375 -5.171875 C 142.207031 -8.398438 140.59375 -12.28125 140.59375 -16.8125 L 140.59375 -102.125 L 66.90625 -102.125 L 66.90625 166.125 C 67.113281 170.4375 65.492188 174.316406 62.046875 177.765625 C 58.816406 181.203125 54.941406 182.921875 50.421875 182.921875 C 46.109375 182.921875 42.335938 181.203125 39.109375 177.765625 C 35.660156 174.316406 33.9375 170.4375 33.9375 166.125 L 33.9375 -222.03125 C 33.9375 -225.914062 35.335938 -229.472656 38.140625 -232.703125 C 40.941406 -235.929688 44.390625 -237.867188 48.484375 -238.515625 C 53.222656 -238.953125 57.53125 -237.445312 61.40625 -234 C 65.28125 -230.550781 67.113281 -226.457031 66.90625 -221.71875 L 66.90625 -135.09375 L 140.59375 -135.09375 L 140.59375 -392.359375 C 140.59375 -396.671875 142.207031 -400.441406 145.4375 -403.671875 C 148.664062 -407.117188 152.4375 -408.84375 156.75 -408.84375 L 157.078125 -408.84375 C 161.378906 -409.0625 165.253906 -407.445312 168.703125 -404 C 172.148438 -400.550781 173.769531 -396.671875 173.5625 -392.359375 Z M 173.5625 -392.359375 "/></g></g></g><g fill="#609a93" fill-opacity="1"><g transform="translate(355.07146, 530.816799)"><g><path d="M 173.5625 -392.359375 L 173.5625 -16.484375 C 173.5625 -12.171875 171.941406 -8.398438 168.703125 -5.171875 C 165.253906 -1.722656 161.378906 0 157.078125 0 C 152.765625 0 148.882812 -1.722656 145.4375 -5.171875 C 142.207031 -8.398438 140.59375 -12.28125 140.59375 -16.8125 L 140.59375 -102.125 L 66.90625 -102.125 L 66.90625 166.125 C 67.113281 170.4375 65.492188 174.316406 62.046875 177.765625 C 58.816406 181.203125 54.941406 182.921875 50.421875 182.921875 C 46.109375 182.921875 42.335938 181.203125 39.109375 177.765625 C 35.660156 174.316406 33.9375 170.4375 33.9375 166.125 L 33.9375 -222.03125 C 33.9375 -225.914062 35.335938 -229.472656 38.140625 -232.703125 C 40.941406 -235.929688 44.390625 -237.867188 48.484375 -238.515625 C 53.222656 -238.953125 57.53125 -237.445312 61.40625 -234 C 65.28125 -230.550781 67.113281 -226.457031 66.90625 -221.71875 L 66.90625 -135.09375 L 140.59375 -135.09375 L 140.59375 -392.359375 C 140.59375 -396.671875 142.207031 -400.441406 145.4375 -403.671875 C 148.664062 -407.117188 152.4375 -408.84375 156.75 -408.84375 L 157.078125 -408.84375 C 161.378906 -409.0625 165.253906 -407.445312 168.703125 -404 C 172.148438 -400.550781 173.769531 -396.671875 173.5625 -392.359375 Z M 173.5625 -392.359375 "/></g></g></g></svg>