<svg xmlns="http://www.w3.org/2000/svg" xmlns:xlink="http://www.w3.org/1999/xlink" width="1080" zoomAndPan="magnify" viewBox="0 0 810 809.999993" height="1080" preserveAspectRatio="xMidYMid meet" version="1.0"><defs><g/><clipPath id="85791c53d5"><path d="M 191.804688 191.804688 L 618.195312 191.804688 L 618.195312 618.195312 L 191.804688 618.195312 Z M 191.804688 191.804688 " clip-rule="nonzero"/></clipPath><clipPath id="af31752a1e"><path d="M 405 191.804688 C 287.257812 191.804688 191.804688 287.257812 191.804688 405 C 191.804688 522.742188 287.257812 618.195312 405 618.195312 C 522.742188 618.195312 618.195312 522.742188 618.195312 405 C 618.195312 287.257812 522.742188 191.804688 405 191.804688 Z M 405 191.804688 " clip-rule="nonzero"/></clipPath></defs><g clip-path="url(#85791c53d5)"><g clip-path="url(#af31752a1e)"><path fill="#376e67" d="M 191.804688 191.804688 L 618.195312 191.804688 L 618.195312 618.195312 L 191.804688 618.195312 Z M 191.804688 191.804688 " fill-opacity="1" fill-rule="nonzero"/></g></g><g fill="#f9f9f9" fill-opacity="1"><g transform="translate(367.317718, 451.306008)"><g><path d="M 28.953125 -45.359375 L 34.921875 -45.359375 C 40.503906 -45.359375 44.679688 -46.457031 47.453125 -48.65625 C 50.234375 -50.863281 51.625 -54.078125 51.625 -58.296875 C 51.625 -62.554688 50.460938 -65.703125 48.140625 -67.734375 C 45.816406 -69.765625 42.171875 -70.78125 37.203125 -70.78125 L 28.953125 -70.78125 Z M 69.96875 -58.953125 C 69.96875 -49.734375 67.082031 -42.679688 61.3125 -37.796875 C 55.550781 -32.910156 47.359375 -30.46875 36.734375 -30.46875 L 28.953125 -30.46875 L 28.953125 0 L 10.78125 0 L 10.78125 -85.671875 L 38.140625 -85.671875 C 48.535156 -85.671875 56.4375 -83.429688 61.84375 -78.953125 C 67.257812 -74.484375 69.96875 -67.816406 69.96875 -58.953125 Z M 69.96875 -58.953125 "/></g></g></g></svg>